G04 #@! TF.GenerationSoftware,KiCad,Pcbnew,(5.1.4)-1*
G04 #@! TF.CreationDate,2020-04-16T22:04:32+01:00*
G04 #@! TF.ProjectId,mysterium-pcb,6d797374-6572-4697-956d-2d7063622e6b,rev?*
G04 #@! TF.SameCoordinates,Original*
G04 #@! TF.FileFunction,Legend,Bot*
G04 #@! TF.FilePolarity,Positive*
%FSLAX46Y46*%
G04 Gerber Fmt 4.6, Leading zero omitted, Abs format (unit mm)*
G04 Created by KiCad (PCBNEW (5.1.4)-1) date 2020-04-16 22:04:32*
%MOMM*%
%LPD*%
G04 APERTURE LIST*
%ADD10C,2.302000*%
%ADD11C,4.102000*%
%ADD12C,1.802000*%
%ADD13O,1.702000X1.702000*%
%ADD14R,1.702000X1.702000*%
%ADD15C,3.152000*%
%ADD16C,4.502000*%
%ADD17C,4.089800*%
%ADD18C,3.150000*%
%ADD19C,1.602000*%
%ADD20O,0.752000X1.102000*%
%ADD21O,1.002000X2.502000*%
%ADD22O,1.002000X1.802000*%
%ADD23C,2.102000*%
%ADD24C,1.502000*%
%ADD25O,1.502000X1.502000*%
%ADD26C,1.902000*%
%ADD27R,1.902000X1.902000*%
%ADD28R,1.802000X1.802000*%
%ADD29C,1.702000*%
%ADD30R,1.302000X1.302000*%
%ADD31C,1.302000*%
G04 APERTURE END LIST*
%LPC*%
D10*
X73090001Y-168245000D03*
X66740001Y-170785000D03*
D11*
X70550001Y-173325000D03*
D12*
X65470001Y-173325000D03*
X75630001Y-173325000D03*
D13*
X44500000Y-70080000D03*
D14*
X44500000Y-65000000D03*
D10*
X51600000Y-168300000D03*
X45250000Y-170840000D03*
D11*
X49060000Y-173380000D03*
D12*
X43980000Y-173380000D03*
X54140000Y-173380000D03*
D10*
X292100000Y-149200000D03*
X285750000Y-151740000D03*
D11*
X289560000Y-154280000D03*
D12*
X284480000Y-154280000D03*
X294640000Y-154280000D03*
D10*
X316080000Y-147340000D03*
X313540000Y-140990000D03*
D11*
X311000000Y-144800000D03*
D12*
X311000000Y-139720000D03*
X311000000Y-149880000D03*
D11*
X302760000Y-156700000D03*
X302760000Y-132900000D03*
D15*
X318000000Y-132900000D03*
X318000000Y-156700000D03*
D16*
X287223200Y-78063500D03*
X134734300Y-78063500D03*
D10*
X299243750Y-168281350D03*
X292893750Y-170821350D03*
D11*
X296703750Y-173361350D03*
D12*
X291623750Y-173361350D03*
X301783750Y-173361350D03*
D11*
X308603750Y-181601350D03*
X284803750Y-181601350D03*
D15*
X284803750Y-166361350D03*
X308603750Y-166361350D03*
X313366250Y-147305000D03*
X289566250Y-147305000D03*
D11*
X289566250Y-162545000D03*
X313366250Y-162545000D03*
D12*
X306546250Y-154305000D03*
X296386250Y-154305000D03*
D11*
X301466250Y-154305000D03*
D10*
X297656250Y-151765000D03*
X304006250Y-149225000D03*
D13*
X311365410Y-75134948D03*
D14*
X311365410Y-70054948D03*
D13*
X72896866Y-75134948D03*
D14*
X72896866Y-70054948D03*
D13*
X108530629Y-72654655D03*
D14*
X108530629Y-67574655D03*
D13*
X321967188Y-75134948D03*
D14*
X321967188Y-70054948D03*
D13*
X343170744Y-75134948D03*
D14*
X343170744Y-70054948D03*
D13*
X339636818Y-75134948D03*
D14*
X339636818Y-70054948D03*
D13*
X339636818Y-64760499D03*
D14*
X339636818Y-59680499D03*
D13*
X336102892Y-75134948D03*
D14*
X336102892Y-70054948D03*
D13*
X325501114Y-75134948D03*
D14*
X325501114Y-70054948D03*
D13*
X314899336Y-75134948D03*
D14*
X314899336Y-70054948D03*
D13*
X314899336Y-64760499D03*
D14*
X314899336Y-59680499D03*
D13*
X150643258Y-75134948D03*
D14*
X150643258Y-70054948D03*
D13*
X69657433Y-72654655D03*
D14*
X69657433Y-67574655D03*
D13*
X66418000Y-70174362D03*
D14*
X66418000Y-65094362D03*
D13*
X63178567Y-75134948D03*
D14*
X63178567Y-70054948D03*
D13*
X346704670Y-75134948D03*
D14*
X346704670Y-70054948D03*
D13*
X329035040Y-64760499D03*
D14*
X329035040Y-59680499D03*
D13*
X318433262Y-64760499D03*
D14*
X318433262Y-59680499D03*
D13*
X199234783Y-75134948D03*
D14*
X199234783Y-70054948D03*
D13*
X183037588Y-70174362D03*
D14*
X183037588Y-65094362D03*
D13*
X163600990Y-70174362D03*
D14*
X163600990Y-65094362D03*
D13*
X147403825Y-72654655D03*
D14*
X147403825Y-67574655D03*
D13*
X131206660Y-75134948D03*
D14*
X131206660Y-70054948D03*
D13*
X115009495Y-70174362D03*
D14*
X115009495Y-65094362D03*
D13*
X98812330Y-72654655D03*
D14*
X98812330Y-67574655D03*
D13*
X82615165Y-75134948D03*
D14*
X82615165Y-70054948D03*
D13*
X59939134Y-72654655D03*
D14*
X59939134Y-67574655D03*
D13*
X329035040Y-75134948D03*
D14*
X329035040Y-70054948D03*
D13*
X318433262Y-75134948D03*
D14*
X318433262Y-70054948D03*
D13*
X311365410Y-64760499D03*
D14*
X311365410Y-59680499D03*
D13*
X208953100Y-75134948D03*
D14*
X208953100Y-70054948D03*
D13*
X195995344Y-72453500D03*
D14*
X195995344Y-67373500D03*
D13*
X179798155Y-75134948D03*
D14*
X179798155Y-70054948D03*
D13*
X160361557Y-75134948D03*
D14*
X160361557Y-70054948D03*
D13*
X144164392Y-70174362D03*
D14*
X144164392Y-65094362D03*
D13*
X127967227Y-72654655D03*
D14*
X127967227Y-67574655D03*
D13*
X111770062Y-75134948D03*
D14*
X111770062Y-70054948D03*
D13*
X95572897Y-70174362D03*
D14*
X95572897Y-65094362D03*
D13*
X79375732Y-72654655D03*
D14*
X79375732Y-67574655D03*
D13*
X56699701Y-70174362D03*
D14*
X56699701Y-65094362D03*
D13*
X357306448Y-75134948D03*
D14*
X357306448Y-70054948D03*
D13*
X353772522Y-75134948D03*
D14*
X353772522Y-70054948D03*
D13*
X350238596Y-75134948D03*
D14*
X350238596Y-70054948D03*
D13*
X332568966Y-64760499D03*
D14*
X332568966Y-59680499D03*
D13*
X325501114Y-64760499D03*
D14*
X325501114Y-59680499D03*
D13*
X321967188Y-64760499D03*
D14*
X321967188Y-59680499D03*
D13*
X307831484Y-75134948D03*
D14*
X307831484Y-70054948D03*
D13*
X192755905Y-70174362D03*
D14*
X192755905Y-65094362D03*
D13*
X186277027Y-72453500D03*
D14*
X186277027Y-67373500D03*
D13*
X176558722Y-72654655D03*
D14*
X176558722Y-67574655D03*
D13*
X157122124Y-72654655D03*
D14*
X157122124Y-67574655D03*
D13*
X140924959Y-75134948D03*
D14*
X140924959Y-70054948D03*
D13*
X124727794Y-70174362D03*
D14*
X124727794Y-65094362D03*
D13*
X92333464Y-75134948D03*
D14*
X92333464Y-70054948D03*
D13*
X76136299Y-70174362D03*
D14*
X76136299Y-65094362D03*
D13*
X53460268Y-75134948D03*
D14*
X53460268Y-70054948D03*
D13*
X367908226Y-75134948D03*
D14*
X367908226Y-70054948D03*
D13*
X364374300Y-75134948D03*
D14*
X364374300Y-70054948D03*
D13*
X360840374Y-75134948D03*
D14*
X360840374Y-70054948D03*
D13*
X332568966Y-75134948D03*
D14*
X332568966Y-70054948D03*
D13*
X307831484Y-64760499D03*
D14*
X307831484Y-59680499D03*
D13*
X205713661Y-72453500D03*
D14*
X205713661Y-67373500D03*
D13*
X189516466Y-75134948D03*
D14*
X189516466Y-70054948D03*
D13*
X173319289Y-70174362D03*
D14*
X173319289Y-65094362D03*
D13*
X166840423Y-72654655D03*
D14*
X166840423Y-67574655D03*
D13*
X153882691Y-70174362D03*
D14*
X153882691Y-65094362D03*
D13*
X134446093Y-70174362D03*
D14*
X134446093Y-65094362D03*
D13*
X118248928Y-72654655D03*
D14*
X118248928Y-67574655D03*
D13*
X102051763Y-75134948D03*
D14*
X102051763Y-70054948D03*
D13*
X85854598Y-70174362D03*
D14*
X85854598Y-65094362D03*
D13*
X50220835Y-72654655D03*
D14*
X50220835Y-67574655D03*
D13*
X374976098Y-75134948D03*
D14*
X374976098Y-70054948D03*
D13*
X371442152Y-75134948D03*
D14*
X371442152Y-70054948D03*
D13*
X336102892Y-64760499D03*
D14*
X336102892Y-59680499D03*
D13*
X297229706Y-64760499D03*
D14*
X297229706Y-59680499D03*
D13*
X297229706Y-75134948D03*
D14*
X297229706Y-70054948D03*
D13*
X300763632Y-64760499D03*
D14*
X300763632Y-59680499D03*
D13*
X300763632Y-75134948D03*
D14*
X300763632Y-70054948D03*
D13*
X304297558Y-64760499D03*
D14*
X304297558Y-59680499D03*
D13*
X304297558Y-75134948D03*
D14*
X304297558Y-70054948D03*
D13*
X202474222Y-70174362D03*
D14*
X202474222Y-65094362D03*
D13*
X170079856Y-75134948D03*
D14*
X170079856Y-70054948D03*
D13*
X137685526Y-72654655D03*
D14*
X137685526Y-67574655D03*
D13*
X121488361Y-75134948D03*
D14*
X121488361Y-70054948D03*
D13*
X105291196Y-70174362D03*
D14*
X105291196Y-65094362D03*
D13*
X89094031Y-72654655D03*
D14*
X89094031Y-67574655D03*
D13*
X46981402Y-70174362D03*
D14*
X46981402Y-65094362D03*
D16*
X287223200Y-59313500D03*
X41147500Y-59313500D03*
X380120412Y-177904900D03*
X328583688Y-177904900D03*
X380120412Y-149669500D03*
X328583688Y-149669500D03*
X80000000Y-173037500D03*
X86360000Y-104152700D03*
X335597500Y-104152700D03*
X211016251Y-192163700D03*
X211016251Y-104152700D03*
X134734300Y-59313500D03*
X380810000Y-59313500D03*
X380810000Y-78063500D03*
X41147500Y-78063500D03*
D10*
X244475000Y-168275000D03*
X238125000Y-170815000D03*
D11*
X241935000Y-173355000D03*
D12*
X236855000Y-173355000D03*
X247015000Y-173355000D03*
D10*
X258762500Y-111125000D03*
X252412500Y-113665000D03*
D11*
X256222500Y-116205000D03*
D12*
X251142500Y-116205000D03*
X261302500Y-116205000D03*
D17*
X218109800Y-184162700D03*
X118110000Y-184162700D03*
D18*
X218109800Y-199402700D03*
X118110000Y-199402700D03*
D17*
X237172500Y-184150000D03*
X122872500Y-184150000D03*
D18*
X237172500Y-199390000D03*
X122872500Y-199390000D03*
D19*
X269227300Y-78447900D03*
X264347300Y-78447900D03*
D20*
X212291251Y-63897700D03*
X213991251Y-63897700D03*
X213141251Y-63897700D03*
X211441251Y-63897700D03*
X210591251Y-63897700D03*
X209741251Y-63897700D03*
X208891251Y-63897700D03*
X208041251Y-63897700D03*
X213991251Y-62572700D03*
X213136251Y-62572700D03*
X212286251Y-62572700D03*
X211436251Y-62572700D03*
X210586251Y-62572700D03*
X209736251Y-62572700D03*
X208886251Y-62572700D03*
X208036251Y-62572700D03*
D21*
X215341251Y-62917700D03*
X206691251Y-62917700D03*
D22*
X215341251Y-59537700D03*
X206691251Y-59537700D03*
D14*
X233616500Y-74485500D03*
D13*
X281876500Y-59245500D03*
X236156500Y-74485500D03*
X279336500Y-59245500D03*
X238696500Y-74485500D03*
X276796500Y-59245500D03*
X241236500Y-74485500D03*
X274256500Y-59245500D03*
X243776500Y-74485500D03*
X271716500Y-59245500D03*
X246316500Y-74485500D03*
X269176500Y-59245500D03*
X248856500Y-74485500D03*
X266636500Y-59245500D03*
X251396500Y-74485500D03*
X264096500Y-59245500D03*
X253936500Y-74485500D03*
X261556500Y-59245500D03*
X256476500Y-74485500D03*
X259016500Y-59245500D03*
X259016500Y-74485500D03*
X256476500Y-59245500D03*
X261556500Y-74485500D03*
X253936500Y-59245500D03*
X264096500Y-74485500D03*
X251396500Y-59245500D03*
X266636500Y-74485500D03*
X248856500Y-59245500D03*
X269176500Y-74485500D03*
X246316500Y-59245500D03*
X271716500Y-74485500D03*
X243776500Y-59245500D03*
X274256500Y-74485500D03*
X241236500Y-59245500D03*
X276796500Y-74485500D03*
X238696500Y-59245500D03*
X279336500Y-74485500D03*
X236156500Y-59245500D03*
X281876500Y-74485500D03*
X233616500Y-59245500D03*
D10*
X377825000Y-187325000D03*
X371475000Y-189865000D03*
D11*
X375285000Y-192405000D03*
D12*
X370205000Y-192405000D03*
X380365000Y-192405000D03*
D10*
X358775000Y-187325000D03*
X352425000Y-189865000D03*
D11*
X356235000Y-192405000D03*
D12*
X351155000Y-192405000D03*
X361315000Y-192405000D03*
D10*
X339725000Y-187325000D03*
X333375000Y-189865000D03*
D11*
X337185000Y-192405000D03*
D12*
X332105000Y-192405000D03*
X342265000Y-192405000D03*
D10*
X313531250Y-187325000D03*
X307181250Y-189865000D03*
D11*
X310991250Y-192405000D03*
D12*
X305911250Y-192405000D03*
X316071250Y-192405000D03*
X313690000Y-192405000D03*
X303530000Y-192405000D03*
D11*
X308610000Y-192405000D03*
D10*
X304800000Y-189865000D03*
X311150000Y-187325000D03*
X287337500Y-187325000D03*
X280987500Y-189865000D03*
D11*
X284797500Y-192405000D03*
D12*
X279717500Y-192405000D03*
X289877500Y-192405000D03*
D10*
X289718750Y-187325000D03*
X283368750Y-189865000D03*
D11*
X287178750Y-192405000D03*
D12*
X282098750Y-192405000D03*
X292258750Y-192405000D03*
D10*
X265906250Y-187325000D03*
X259556250Y-189865000D03*
D11*
X263366250Y-192405000D03*
D12*
X258286250Y-192405000D03*
X268446250Y-192405000D03*
X266065000Y-192405000D03*
X255905000Y-192405000D03*
D11*
X260985000Y-192405000D03*
D10*
X257175000Y-189865000D03*
X263525000Y-187325000D03*
X242093750Y-187325000D03*
X235743750Y-189865000D03*
D11*
X239553750Y-192405000D03*
D12*
X234473750Y-192405000D03*
X244633750Y-192405000D03*
D10*
X182562500Y-187325000D03*
X176212500Y-189865000D03*
D11*
X180022500Y-192405000D03*
D12*
X174942500Y-192405000D03*
X185102500Y-192405000D03*
D10*
X170656250Y-187325000D03*
X164306250Y-189865000D03*
D11*
X168116250Y-192405000D03*
D12*
X163036250Y-192405000D03*
X173196250Y-192405000D03*
X101758750Y-192405000D03*
X91598750Y-192405000D03*
D11*
X96678750Y-192405000D03*
D10*
X92868750Y-189865000D03*
X99218750Y-187325000D03*
D12*
X104140000Y-192405000D03*
X93980000Y-192405000D03*
D11*
X99060000Y-192405000D03*
D10*
X95250000Y-189865000D03*
X101600000Y-187325000D03*
X77787500Y-187325000D03*
X71437500Y-189865000D03*
D11*
X75247500Y-192405000D03*
D12*
X70167500Y-192405000D03*
X80327500Y-192405000D03*
D10*
X75406250Y-187325000D03*
X69056250Y-189865000D03*
D11*
X72866250Y-192405000D03*
D12*
X67786250Y-192405000D03*
X77946250Y-192405000D03*
D10*
X51593750Y-187325000D03*
X45243750Y-189865000D03*
D11*
X49053750Y-192405000D03*
D12*
X43973750Y-192405000D03*
X54133750Y-192405000D03*
X56515000Y-192405000D03*
X46355000Y-192405000D03*
D11*
X51435000Y-192405000D03*
D10*
X47625000Y-189865000D03*
X53975000Y-187325000D03*
X358775000Y-168275000D03*
X352425000Y-170815000D03*
D11*
X356235000Y-173355000D03*
D12*
X351155000Y-173355000D03*
X361315000Y-173355000D03*
D10*
X263525000Y-168275000D03*
X257175000Y-170815000D03*
D11*
X260985000Y-173355000D03*
D12*
X255905000Y-173355000D03*
X266065000Y-173355000D03*
D10*
X225425000Y-168275000D03*
X219075000Y-170815000D03*
D11*
X222885000Y-173355000D03*
D12*
X217805000Y-173355000D03*
X227965000Y-173355000D03*
D10*
X206375000Y-168275000D03*
X200025000Y-170815000D03*
D11*
X203835000Y-173355000D03*
D12*
X198755000Y-173355000D03*
X208915000Y-173355000D03*
D10*
X187325000Y-168275000D03*
X180975000Y-170815000D03*
D11*
X184785000Y-173355000D03*
D12*
X179705000Y-173355000D03*
X189865000Y-173355000D03*
D10*
X168275000Y-168275000D03*
X161925000Y-170815000D03*
D11*
X165735000Y-173355000D03*
D12*
X160655000Y-173355000D03*
X170815000Y-173355000D03*
D10*
X149225000Y-168275000D03*
X142875000Y-170815000D03*
D11*
X146685000Y-173355000D03*
D12*
X141605000Y-173355000D03*
X151765000Y-173355000D03*
D10*
X130175000Y-168275000D03*
X123825000Y-170815000D03*
D11*
X127635000Y-173355000D03*
D12*
X122555000Y-173355000D03*
X132715000Y-173355000D03*
D10*
X111125000Y-168275000D03*
X104775000Y-170815000D03*
D11*
X108585000Y-173355000D03*
D12*
X103505000Y-173355000D03*
X113665000Y-173355000D03*
D10*
X92075000Y-168275000D03*
X85725000Y-170815000D03*
D11*
X89535000Y-173355000D03*
D12*
X84455000Y-173355000D03*
X94615000Y-173355000D03*
D15*
X70478750Y-166355000D03*
X46678750Y-166355000D03*
D11*
X46678750Y-181595000D03*
X70478750Y-181595000D03*
D12*
X63658750Y-173355000D03*
X53498750Y-173355000D03*
D11*
X58578750Y-173355000D03*
D10*
X54768750Y-170815000D03*
X61118750Y-168275000D03*
X273050000Y-149225000D03*
X266700000Y-151765000D03*
D11*
X270510000Y-154305000D03*
D12*
X265430000Y-154305000D03*
X275590000Y-154305000D03*
D10*
X254000000Y-149225000D03*
X247650000Y-151765000D03*
D11*
X251460000Y-154305000D03*
D12*
X246380000Y-154305000D03*
X256540000Y-154305000D03*
D10*
X234950000Y-149225000D03*
X228600000Y-151765000D03*
D11*
X232410000Y-154305000D03*
D12*
X227330000Y-154305000D03*
X237490000Y-154305000D03*
D10*
X215900000Y-149225000D03*
X209550000Y-151765000D03*
D11*
X213360000Y-154305000D03*
D12*
X208280000Y-154305000D03*
X218440000Y-154305000D03*
D10*
X196850000Y-149225000D03*
X190500000Y-151765000D03*
D11*
X194310000Y-154305000D03*
D12*
X189230000Y-154305000D03*
X199390000Y-154305000D03*
D10*
X177800000Y-149225000D03*
X171450000Y-151765000D03*
D11*
X175260000Y-154305000D03*
D12*
X170180000Y-154305000D03*
X180340000Y-154305000D03*
D10*
X158750000Y-149225000D03*
X152400000Y-151765000D03*
D11*
X156210000Y-154305000D03*
D12*
X151130000Y-154305000D03*
X161290000Y-154305000D03*
D10*
X139700000Y-149225000D03*
X133350000Y-151765000D03*
D11*
X137160000Y-154305000D03*
D12*
X132080000Y-154305000D03*
X142240000Y-154305000D03*
D10*
X120650000Y-149225000D03*
X114300000Y-151765000D03*
D11*
X118110000Y-154305000D03*
D12*
X113030000Y-154305000D03*
X123190000Y-154305000D03*
D10*
X101600000Y-149225000D03*
X95250000Y-151765000D03*
D11*
X99060000Y-154305000D03*
D12*
X93980000Y-154305000D03*
X104140000Y-154305000D03*
D10*
X82550000Y-149225000D03*
X76200000Y-151765000D03*
D11*
X80010000Y-154305000D03*
D12*
X74930000Y-154305000D03*
X85090000Y-154305000D03*
D10*
X51593750Y-149225000D03*
X45243750Y-151765000D03*
D11*
X49053750Y-154305000D03*
D12*
X43973750Y-154305000D03*
X54133750Y-154305000D03*
D10*
X56356250Y-149225000D03*
X50006250Y-151765000D03*
D11*
X53816250Y-154305000D03*
D12*
X48736250Y-154305000D03*
X58896250Y-154305000D03*
D10*
X377825000Y-130175000D03*
X371475000Y-132715000D03*
D11*
X375285000Y-135255000D03*
D12*
X370205000Y-135255000D03*
X380365000Y-135255000D03*
D10*
X358775000Y-130175000D03*
X352425000Y-132715000D03*
D11*
X356235000Y-135255000D03*
D12*
X351155000Y-135255000D03*
X361315000Y-135255000D03*
D10*
X339725000Y-130175000D03*
X333375000Y-132715000D03*
D11*
X337185000Y-135255000D03*
D12*
X332105000Y-135255000D03*
X342265000Y-135255000D03*
X313690000Y-135255000D03*
X303530000Y-135255000D03*
D11*
X308610000Y-135255000D03*
D10*
X304800000Y-132715000D03*
X311150000Y-130175000D03*
X287337500Y-130175000D03*
X280987500Y-132715000D03*
D11*
X284797500Y-135255000D03*
D12*
X279717500Y-135255000D03*
X289877500Y-135255000D03*
D10*
X268287500Y-130175000D03*
X261937500Y-132715000D03*
D11*
X265747500Y-135255000D03*
D12*
X260667500Y-135255000D03*
X270827500Y-135255000D03*
D10*
X249237500Y-130175000D03*
X242887500Y-132715000D03*
D11*
X246697500Y-135255000D03*
D12*
X241617500Y-135255000D03*
X251777500Y-135255000D03*
D10*
X230187500Y-130175000D03*
X223837500Y-132715000D03*
D11*
X227647500Y-135255000D03*
D12*
X222567500Y-135255000D03*
X232727500Y-135255000D03*
D10*
X211137500Y-130175000D03*
X204787500Y-132715000D03*
D11*
X208597500Y-135255000D03*
D12*
X203517500Y-135255000D03*
X213677500Y-135255000D03*
D10*
X192087500Y-130175000D03*
X185737500Y-132715000D03*
D11*
X189547500Y-135255000D03*
D12*
X184467500Y-135255000D03*
X194627500Y-135255000D03*
D10*
X173037500Y-130175000D03*
X166687500Y-132715000D03*
D11*
X170497500Y-135255000D03*
D12*
X165417500Y-135255000D03*
X175577500Y-135255000D03*
D10*
X153987500Y-130175000D03*
X147637500Y-132715000D03*
D11*
X151447500Y-135255000D03*
D12*
X146367500Y-135255000D03*
X156527500Y-135255000D03*
D10*
X134937500Y-130175000D03*
X128587500Y-132715000D03*
D11*
X132397500Y-135255000D03*
D12*
X127317500Y-135255000D03*
X137477500Y-135255000D03*
D10*
X115887500Y-130175000D03*
X109537500Y-132715000D03*
D11*
X113347500Y-135255000D03*
D12*
X108267500Y-135255000D03*
X118427500Y-135255000D03*
D10*
X96837500Y-130175000D03*
X90487500Y-132715000D03*
D11*
X94297500Y-135255000D03*
D12*
X89217500Y-135255000D03*
X99377500Y-135255000D03*
D10*
X77787500Y-130175000D03*
X71437500Y-132715000D03*
D11*
X75247500Y-135255000D03*
D12*
X70167500Y-135255000D03*
X80327500Y-135255000D03*
X56515000Y-135255000D03*
X46355000Y-135255000D03*
D11*
X51435000Y-135255000D03*
D10*
X47625000Y-132715000D03*
X53975000Y-130175000D03*
X377825000Y-111125000D03*
X371475000Y-113665000D03*
D11*
X375285000Y-116205000D03*
D12*
X370205000Y-116205000D03*
X380365000Y-116205000D03*
D10*
X358775000Y-111125000D03*
X352425000Y-113665000D03*
D11*
X356235000Y-116205000D03*
D12*
X351155000Y-116205000D03*
X361315000Y-116205000D03*
D10*
X339725000Y-111125000D03*
X333375000Y-113665000D03*
D11*
X337185000Y-116205000D03*
D12*
X332105000Y-116205000D03*
X342265000Y-116205000D03*
D10*
X306387500Y-111125000D03*
X300037500Y-113665000D03*
D11*
X303847500Y-116205000D03*
D12*
X298767500Y-116205000D03*
X308927500Y-116205000D03*
D11*
X315747500Y-124445000D03*
X291947500Y-124445000D03*
D15*
X291947500Y-109205000D03*
X315747500Y-109205000D03*
D10*
X277812500Y-111125000D03*
X271462500Y-113665000D03*
D11*
X275272500Y-116205000D03*
D12*
X270192500Y-116205000D03*
X280352500Y-116205000D03*
D10*
X239712500Y-111125000D03*
X233362500Y-113665000D03*
D11*
X237172500Y-116205000D03*
D12*
X232092500Y-116205000D03*
X242252500Y-116205000D03*
D10*
X220662500Y-111125000D03*
X214312500Y-113665000D03*
D11*
X218122500Y-116205000D03*
D12*
X213042500Y-116205000D03*
X223202500Y-116205000D03*
D10*
X201612500Y-111125000D03*
X195262500Y-113665000D03*
D11*
X199072500Y-116205000D03*
D12*
X193992500Y-116205000D03*
X204152500Y-116205000D03*
D10*
X182562500Y-111125000D03*
X176212500Y-113665000D03*
D11*
X180022500Y-116205000D03*
D12*
X174942500Y-116205000D03*
X185102500Y-116205000D03*
D10*
X163512500Y-111125000D03*
X157162500Y-113665000D03*
D11*
X160972500Y-116205000D03*
D12*
X155892500Y-116205000D03*
X166052500Y-116205000D03*
D10*
X144462500Y-111125000D03*
X138112500Y-113665000D03*
D11*
X141922500Y-116205000D03*
D12*
X136842500Y-116205000D03*
X147002500Y-116205000D03*
D10*
X125412500Y-111125000D03*
X119062500Y-113665000D03*
D11*
X122872500Y-116205000D03*
D12*
X117792500Y-116205000D03*
X127952500Y-116205000D03*
D10*
X106362500Y-111125000D03*
X100012500Y-113665000D03*
D11*
X103822500Y-116205000D03*
D12*
X98742500Y-116205000D03*
X108902500Y-116205000D03*
D10*
X87312500Y-111125000D03*
X80962500Y-113665000D03*
D11*
X84772500Y-116205000D03*
D12*
X79692500Y-116205000D03*
X89852500Y-116205000D03*
D10*
X68262500Y-111125000D03*
X61912500Y-113665000D03*
D11*
X65722500Y-116205000D03*
D12*
X60642500Y-116205000D03*
X70802500Y-116205000D03*
D10*
X49212500Y-111125000D03*
X42862500Y-113665000D03*
D11*
X46672500Y-116205000D03*
D12*
X41592500Y-116205000D03*
X51752500Y-116205000D03*
D10*
X377825000Y-87312500D03*
X371475000Y-89852500D03*
D11*
X375285000Y-92392500D03*
D12*
X370205000Y-92392500D03*
X380365000Y-92392500D03*
D10*
X358775000Y-87312500D03*
X352425000Y-89852500D03*
D11*
X356235000Y-92392500D03*
D12*
X351155000Y-92392500D03*
X361315000Y-92392500D03*
D10*
X339725000Y-87312500D03*
X333375000Y-89852500D03*
D11*
X337185000Y-92392500D03*
D12*
X332105000Y-92392500D03*
X342265000Y-92392500D03*
D10*
X315912500Y-87312500D03*
X309562500Y-89852500D03*
D11*
X313372500Y-92392500D03*
D12*
X308292500Y-92392500D03*
X318452500Y-92392500D03*
D10*
X296862500Y-87312500D03*
X290512500Y-89852500D03*
D11*
X294322500Y-92392500D03*
D12*
X289242500Y-92392500D03*
X299402500Y-92392500D03*
D10*
X277812500Y-87312500D03*
X271462500Y-89852500D03*
D11*
X275272500Y-92392500D03*
D12*
X270192500Y-92392500D03*
X280352500Y-92392500D03*
D10*
X258762500Y-87312500D03*
X252412500Y-89852500D03*
D11*
X256222500Y-92392500D03*
D12*
X251142500Y-92392500D03*
X261302500Y-92392500D03*
D10*
X230187500Y-87312500D03*
X223837500Y-89852500D03*
D11*
X227647500Y-92392500D03*
D12*
X222567500Y-92392500D03*
X232727500Y-92392500D03*
D10*
X211137500Y-87312500D03*
X204787500Y-89852500D03*
D11*
X208597500Y-92392500D03*
D12*
X203517500Y-92392500D03*
X213677500Y-92392500D03*
D10*
X192087500Y-87312500D03*
X185737500Y-89852500D03*
D11*
X189547500Y-92392500D03*
D12*
X184467500Y-92392500D03*
X194627500Y-92392500D03*
D10*
X173037500Y-87312500D03*
X166687500Y-89852500D03*
D11*
X170497500Y-92392500D03*
D12*
X165417500Y-92392500D03*
X175577500Y-92392500D03*
D10*
X144462500Y-87312500D03*
X138112500Y-89852500D03*
D11*
X141922500Y-92392500D03*
D12*
X136842500Y-92392500D03*
X147002500Y-92392500D03*
D10*
X125412500Y-87312500D03*
X119062500Y-89852500D03*
D11*
X122872500Y-92392500D03*
D12*
X117792500Y-92392500D03*
X127952500Y-92392500D03*
D10*
X106362500Y-87312500D03*
X100012500Y-89852500D03*
D11*
X103822500Y-92392500D03*
D12*
X98742500Y-92392500D03*
X108902500Y-92392500D03*
D10*
X87312500Y-87312500D03*
X80962500Y-89852500D03*
D11*
X84772500Y-92392500D03*
D12*
X79692500Y-92392500D03*
X89852500Y-92392500D03*
D10*
X49212500Y-87312500D03*
X42862500Y-89852500D03*
D11*
X46672500Y-92392500D03*
D12*
X41592500Y-92392500D03*
X51752500Y-92392500D03*
D23*
X164784597Y-57289700D03*
X164784597Y-61789700D03*
X158284597Y-57289700D03*
X158284597Y-61789700D03*
D24*
X229984300Y-60820300D03*
D25*
X222364300Y-60820300D03*
D24*
X229984300Y-63331263D03*
D25*
X222364300Y-63331263D03*
D24*
X229984300Y-75886078D03*
D25*
X222364300Y-75886078D03*
D24*
X229984300Y-73375115D03*
D25*
X222364300Y-73375115D03*
D24*
X229984300Y-70864152D03*
D25*
X222364300Y-70864152D03*
D24*
X229984300Y-68353189D03*
D25*
X222364300Y-68353189D03*
D24*
X229984300Y-65842226D03*
D25*
X222364300Y-65842226D03*
D26*
X220135499Y-59524900D03*
D27*
X217595499Y-59524900D03*
D28*
X188688397Y-57696100D03*
D12*
X188688397Y-60236100D03*
X186148397Y-57696100D03*
X186148397Y-60236100D03*
X183608397Y-57696100D03*
X183608397Y-60236100D03*
D24*
X203515397Y-57178100D03*
X203515397Y-62278100D03*
D13*
X219367100Y-75882500D03*
D14*
X219367100Y-70802500D03*
D13*
X216420700Y-75882500D03*
D14*
X216420700Y-70802500D03*
D29*
X257082300Y-76923900D03*
X252082300Y-76923900D03*
X253940300Y-56756300D03*
X258940300Y-56756300D03*
D30*
X217945459Y-67911544D03*
D31*
X217945459Y-66411544D03*
D29*
X259626100Y-77700500D03*
X259626100Y-80200500D03*
X273951700Y-77700500D03*
X273951700Y-80200500D03*
D23*
X177523197Y-57315100D03*
X177523197Y-61815100D03*
X171023197Y-57315100D03*
X171023197Y-61815100D03*
M02*
